<svg enable-background="new 0 0 512 512" viewBox="0 0 512 512" xmlns="http://www.w3.org/2000/svg"><g id="Layer_1" display="none"><g style="display:inline;opacity:.32;fill:none;stroke:#6d6e71;strokeWidth:.284;stroke-miterlimit:10"><path d="m0 0h512v512h-512z"/><circle cx="256" cy="256" r="256"/><path d="m74.98 74.98h362.04v362.04h-362.04z"/><path d="m128 0h256v512h-256z"/><path d="m256 0v512"/><path d="m0 128h512v256h-512z"/><path d="m0 256h512"/><path d="m512 0-512 512"/><path d="m0 0 512 512"/><circle cx="256" cy="256" r="181.34"/><circle cx="256" cy="256" r="128"/><circle cx="256" cy="256" r="64"/></g></g><g id="Layer_2"><g><g><path d="m289.26 303.42h-66.52c-4.27 0-8.5.82-12.46 2.42l-98.3 39.71c-11.3 4.56-19.19 14.94-20.59 27.04l-12.23 105.97c-2.05 17.82 11.88 33.44 29.81 33.44h294.07c17.93 0 31.86-15.62 29.8-33.44l-12.22-105.96c-1.4-12.1-9.29-22.48-20.59-27.04l-98.3-39.71c-3.96-1.61-8.2-2.43-12.47-2.43z" fill="#32303b"/></g><path d="m293.37 512h-74.75v-183.82l.91 2.16c13.64 32.28 59.4 32.22 72.96-.09l.87-2.08v183.83z" fill="#e6e7e8"/><path d="m291.42 281.46-.32.19c-20.42 12.36-45.92 12.75-66.71 1.02l-.25-.14c-1.87-1.06-3.71-2.16-5.51-3.31v48.96l.91 2.16c13.64 32.28 59.4 32.22 72.96-.09l.87-2.08v-47.95c-.65.43-1.3.84-1.95 1.24z" fill="#eeab90"/><path d="m161.43 154.11s-8.45-45.71-8.45-71.61c0-33.42 28.99-82.5 104.8-82.5s101.24 55.42 101.24 81.84c0 18.95-8.82 72.05-8.82 72.05s-1.71-41.3-25.32-58.46c-21.31-15.49-45.31-9.16-59.81-.45-12.46 7.47-33.21-5.01-47.97-8.09-31.07-6.47-50.69 27.6-55.67 67.22z" fill="#2d2d2d"/><path d="m364.44 159.54c0-5.82-8.15-6.04-14.22-5.4v-.26c0-.03 0-.06 0-.1-.01.06-.02.1-.02.1s-1.71-41.3-25.32-58.46c-21.31-15.49-45.31-9.16-59.81-.45-12.46 7.47-33.21-5.01-47.97-8.09-30.98-6.46-50.57 27.42-55.62 66.9v.33c-6.04-.6-13.91-.29-13.91 5.43 0 9.04-2.93 31.3 16.41 39.28 6.71 35.03 28.48 65.83 60.17 83.7l.25.14c20.79 11.73 46.29 11.33 66.71-1.02l.32-.19c30.34-18.36 50.89-48.7 57.13-82.84 18.76-8.15 15.88-30.11 15.88-39.07z" fill="#f8ccb9"/><path d="m349.48 150.45h-7.27c-5.03-15.2-22.7-16.67-39.42-16.67-14.92 0-30.59 1.17-37.37 12.22h-18.16c-6.78-11.05-22.45-12.22-37.37-12.22-16.72 0-34.39 1.46-39.42 16.67h-7.96c-1.66 0-3 1.34-3 3s1.34 3 3 3h6.74c-.12 1.18-.19 2.4-.19 3.7 0 22.52 18.32 40.83 40.83 40.83s40.83-18.32 40.83-40.83c0-3.05-.33-5.76-.95-8.15h13.14c-.62 2.39-.95 5.09-.95 8.15 0 22.52 18.32 40.83 40.83 40.83s40.83-18.32 40.83-40.83c0-1.3-.07-2.53-.19-3.7h6.04c1.66 0 3-1.34 3-3s-1.33-3-2.99-3zm-139.58 44.54c-19.21 0-34.83-15.63-34.83-34.83 0-17.12 12.24-20.37 34.83-20.37s34.83 3.25 34.83 20.37c0 19.2-15.62 34.83-34.83 34.83zm92.9 0c-19.21 0-34.83-15.63-34.83-34.83 0-17.12 12.24-20.37 34.83-20.37s34.83 3.25 34.83 20.37c0 19.2-15.63 34.83-34.83 34.83z" fill="#2d2d2d"/></g></g></svg>